<mxfile host="app.diagrams.net" modified="2023-12-20T08:47:08.718Z" agent="Mozilla/5.0 (Windows NT 10.0; Win64; x64) AppleWebKit/537.36 (KHTML, like Gecko) Chrome/120.0.0.0 Safari/537.36" etag="412m1VRdHdvIrmHcuEhJ" version="22.1.11" type="github">
  <diagram id="C5RBs43oDa-KdzZeNtuy" name="Page-1">
    <mxGraphModel dx="1050" dy="557" grid="1" gridSize="10" guides="1" tooltips="1" connect="1" arrows="1" fold="1" page="1" pageScale="1" pageWidth="827" pageHeight="1169" math="0" shadow="0">
      <root>
        <mxCell id="WIyWlLk6GJQsqaUBKTNV-0" />
        <mxCell id="WIyWlLk6GJQsqaUBKTNV-1" parent="WIyWlLk6GJQsqaUBKTNV-0" />
        <mxCell id="NgdUzFf7ABYu7TWkBK6p-2" style="edgeStyle=orthogonalEdgeStyle;rounded=0;orthogonalLoop=1;jettySize=auto;html=1;" edge="1" parent="WIyWlLk6GJQsqaUBKTNV-1" source="NgdUzFf7ABYu7TWkBK6p-0">
          <mxGeometry relative="1" as="geometry">
            <mxPoint x="80" y="120" as="targetPoint" />
          </mxGeometry>
        </mxCell>
        <mxCell id="NgdUzFf7ABYu7TWkBK6p-3" style="edgeStyle=orthogonalEdgeStyle;rounded=0;orthogonalLoop=1;jettySize=auto;html=1;" edge="1" parent="WIyWlLk6GJQsqaUBKTNV-1" source="NgdUzFf7ABYu7TWkBK6p-0">
          <mxGeometry relative="1" as="geometry">
            <mxPoint x="390" y="120" as="targetPoint" />
          </mxGeometry>
        </mxCell>
        <mxCell id="NgdUzFf7ABYu7TWkBK6p-4" style="edgeStyle=orthogonalEdgeStyle;rounded=0;orthogonalLoop=1;jettySize=auto;html=1;" edge="1" parent="WIyWlLk6GJQsqaUBKTNV-1" source="NgdUzFf7ABYu7TWkBK6p-0">
          <mxGeometry relative="1" as="geometry">
            <mxPoint x="730" y="120" as="targetPoint" />
          </mxGeometry>
        </mxCell>
        <mxCell id="NgdUzFf7ABYu7TWkBK6p-0" value="ARTIFACTS ON IMAGES" style="rounded=1;whiteSpace=wrap;html=1;" vertex="1" parent="WIyWlLk6GJQsqaUBKTNV-1">
          <mxGeometry x="250" y="40" width="280" height="30" as="geometry" />
        </mxCell>
        <mxCell id="NgdUzFf7ABYu7TWkBK6p-5" value="Vessels" style="rounded=1;whiteSpace=wrap;html=1;" vertex="1" parent="WIyWlLk6GJQsqaUBKTNV-1">
          <mxGeometry x="20" y="130" width="120" height="30" as="geometry" />
        </mxCell>
        <mxCell id="NgdUzFf7ABYu7TWkBK6p-9" style="edgeStyle=orthogonalEdgeStyle;rounded=0;orthogonalLoop=1;jettySize=auto;html=1;" edge="1" parent="WIyWlLk6GJQsqaUBKTNV-1" source="NgdUzFf7ABYu7TWkBK6p-7">
          <mxGeometry relative="1" as="geometry">
            <mxPoint x="140" y="230" as="targetPoint" />
            <Array as="points">
              <mxPoint x="390" y="200" />
              <mxPoint x="140" y="200" />
            </Array>
          </mxGeometry>
        </mxCell>
        <mxCell id="NgdUzFf7ABYu7TWkBK6p-7" value="Shadow" style="rounded=1;whiteSpace=wrap;html=1;" vertex="1" parent="WIyWlLk6GJQsqaUBKTNV-1">
          <mxGeometry x="330" y="130" width="120" height="30" as="geometry" />
        </mxCell>
        <mxCell id="NgdUzFf7ABYu7TWkBK6p-8" value="Probe issues" style="rounded=1;whiteSpace=wrap;html=1;" vertex="1" parent="WIyWlLk6GJQsqaUBKTNV-1">
          <mxGeometry x="670" y="130" width="120" height="30" as="geometry" />
        </mxCell>
      </root>
    </mxGraphModel>
  </diagram>
</mxfile>
